<?xml version="1.0" standalone="no"?>
<!DOCTYPE svg PUBLIC "-//W3C//DTD SVG 1.1//EN" "http://www.w3.org/Graphics/SVG/1.1/DTD/svg11.dtd" >
<svg xmlns="http://www.w3.org/2000/svg">
<metadata>Generated by IcoMoon</metadata>
<defs>
<font id="negoicons" horiz-adv-x="1024">
<font-face units-per-em="1024" ascent="960" descent="-64" />
<missing-glyph horiz-adv-x="1024" />
<glyph unicode="&#x20;" horiz-adv-x="512" d="" />
<glyph unicode="&#xe900;" glyph-name="ng-add-icon" d="M512 960c-282.768 0-512-229.232-512-512s229.232-512 512-512 512 229.232 512 512-229.232 512-512 512zM736.018 406.122h-176.663v-176.663c0-26.456-21.447-47.903-47.903-47.903s-47.903 21.447-47.903 47.903v0 176.663h-176.717c-26.237 0.287-47.396 21.623-47.396 47.9s21.159 47.614 47.369 47.9h176.717v176.706c0 26.456 21.447 47.903 47.903 47.903s47.903-21.447 47.903-47.903v0-176.706h176.663c0.151 0.002 0.329 0.003 0.507 0.003 26.456 0 47.903-21.447 47.903-47.903s-21.447-47.903-47.903-47.903c-0.178 0-0.356 0.001-0.534 0.003h0.027z" />
<glyph unicode="&#xe901;" glyph-name="ng-card-icon" horiz-adv-x="1738" d="M1570.363 960h-1403.127c-92.356 0-167.236-74.88-167.236-167.236v-430.867h1737.599v430.867c0 92.356-74.88 167.236-167.236 167.236zM598.618 476.879c-13.035-13.063-31.057-21.144-50.966-21.144-0.027 0-0.054 0-0.082 0h-362.985c-39.868 0-72.188 32.32-72.188 72.188s32.32 72.188 72.188 72.188h362.989c39.868-0.001 72.186-32.32 72.186-72.188 0-19.934-8.080-37.98-21.143-51.044v0zM0 156.71h1737.599v-53.447c0-92.356-74.88-167.236-167.236-167.236h-1403.127c-92.356-0.027-167.236 74.853-167.236 167.209z" />
<glyph unicode="&#xe902;" glyph-name="ng-card-paylater-icon" horiz-adv-x="1425" d="M1377.014 429.294l-625.249 323.736c-11.206 5.924-24.495 9.402-38.595 9.402-17.789 0-34.284-5.535-47.859-14.976l0.275 0.181c10.698-32.544 16.869-70 16.869-108.897 0-0.123 0-0.247 0-0.37v0.019c0-0.025 0-0.055 0-0.085 0-17.96-1.301-35.616-3.813-52.879l0.235 1.966 159.327-82.497c11.711-6.162 19.56-18.248 19.56-32.166 0-20.008-16.22-36.228-36.228-36.228-6.090 0-11.829 1.503-16.866 4.157l0.198-0.095-144.059 74.63c-6.279-17.168-12.691-31.408-19.969-45.118l0.937 1.936 671.727-347.828 99.417 192.005c5.925 11.207 9.403 24.496 9.403 38.597 0 32.241-18.182 60.236-44.852 74.29l-0.459 0.22zM1352.9-6.127c-0.004-31.96-25.912-57.868-57.872-57.873h-1094.563c-31.679 0.37-57.218 26.137-57.218 57.869s25.539 57.499 57.183 57.869h788.226l-473.159 245.017c-10.659 5.573-19.617 12.972-26.789 21.871l-0.125 0.161c35.507 18.756 65.914 41.705 92.127 68.744l0.090 0.093 648.658-335.886h65.54c31.96 0 57.868-25.906 57.873-57.865v0zM322.322 960c-177.603 0-321.581-143.978-321.581-321.581s143.978-321.581 321.581-321.581 321.581 143.978 321.581 321.581-143.978 321.581-321.581 321.581zM351.828 651.258c0-23.2-18.805-42.007-42.004-42.012h-18.024v0.17h-157.838c-16.168 0.524-29.075 13.756-29.075 30.003s12.907 29.479 29.027 30.002l0.048 0.001h157.838v234.927c-0.009 0.281-0.015 0.611-0.015 0.943 0 16.578 13.439 30.018 30.018 30.018s30.018-13.439 30.018-30.018c0-0.332-0.005-0.662-0.016-0.991l0.001 0.048z" />
<glyph unicode="&#xe903;" glyph-name="ng-card-swipe-icon" horiz-adv-x="1681" d="M1621.266 547.195l-774.704 401.141c-13.877 7.33-30.331 11.633-47.79 11.633-39.955 0-74.646-22.535-92.058-55.588l-0.273-0.568-123.183-237.885 959.348-496.764 123.183 237.885c7.337 13.883 11.643 30.343 11.643 47.81 0 39.959-22.54 74.653-55.598 92.063l-0.569 0.273zM946.634 558.264c-4.062-1.34-8.738-2.113-13.594-2.113-7.538 0-14.64 1.862-20.874 5.151l0.244-0.118-200.409 103.781c-14.74 7.561-24.652 22.655-24.652 40.064 0 24.788 20.094 44.882 44.882 44.882 7.7 0 14.947-1.939 21.279-5.355l-0.238 0.118 200.409-103.824c14.514-7.633 24.242-22.608 24.242-39.855 0-19.933-12.994-36.83-30.972-42.685l-0.317-0.089zM1519.68 79.399h-81.204l-913.845 473.225-15.284-29.51c-7.341-13.885-11.65-30.35-11.65-47.821 0-39.946 22.527-74.631 55.571-92.043l0.568-0.273 586.257-303.577h-976.582c-39.599 0-71.699-32.101-71.699-71.699v0 0c0-39.599 32.101-71.699 71.699-71.699v0h1356.17c39.599 0 71.699 32.101 71.699 71.699v0 0c0 39.599-32.101 71.699-71.699 71.699v0zM31.041 832.244h534.249c15.212 0 27.543-12.331 27.543-27.543s-12.331-27.543-27.543-27.543h-534.249c-15.212 0-27.543 12.331-27.543 27.543s12.331 27.543 27.543 27.543zM31.041 694.965h343.633c15.212 0 27.543-12.331 27.543-27.543s-12.331-27.543-27.543-27.543h-343.633c-15.212 0-27.543 12.331-27.543 27.543s12.331 27.543 27.543 27.543zM31.041 557.687h180.998c15.212 0 27.543-12.331 27.543-27.543s-12.331-27.543-27.543-27.543h-180.998c-15.212 0-27.543 12.331-27.543 27.543s12.331 27.543 27.543 27.543z" />
<glyph unicode="&#xe904;" glyph-name="ng-clock-icon" d="M512 960c-282.768 0-512-229.232-512-512s229.232-512 512-512 512 229.232 512 512-229.232 512-512 512zM558.985 468.437c0-36.939-29.945-66.885-66.885-66.885v0h-28.696v0.268h-251.302c-26.394 0-47.79 21.396-47.79 47.79s21.396 47.79 47.79 47.79v0h251.302v373.999c0 26.394 21.396 47.79 47.79 47.79s47.79-21.396 47.79-47.79v0z" />
<glyph unicode="&#xe905;" glyph-name="ng-customers-add-icon" horiz-adv-x="1067" d="M507.899 192.489c0-0.029 0-0.064 0-0.099 0-11.615 0.654-23.076 1.928-34.35l-0.127 1.382c-76.809-1.383-152.663 10.411-227.816 31.367-10.177 2.838-20.17 6.335-30.397 8.967-4.985 1.283-6.285 3.758-6.246 8.61 0.201 25.952 0.095 51.91 0.095 77.868h0.128c0 22.35-0.48 44.711 0.084 67.044 2.285 95.697 79.624 172.591 175.282 174.158l0.149 0.002q62.784 1.115 125.607 0c52.975-0.976 100.792-25.367 132.996-63.498-101.501-48.191-171.684-151.626-171.684-271.451zM212.314 303.843c-29.555 3.758-57.029 6.591-84.292 10.874-41.354 6.491-81.877 16.729-121.821 29.276-4.885 1.533-6.201 3.625-6.201 8.509 0.178 46.841-0.151 93.733 0.173 140.596 0.619 90.721 66.102 164.859 156.204 177.088 6.758 0.916 14.569 1.44 22.502 1.44 0.188 0 0.376 0 0.563-0.001h-0.029q58.117 0.206 116.233 0c4.779 0 9.563-0.513 14.816-0.814 2.336-46.351 19.818-85.803 53.053-118.977-52.825-17.069-93.125-48.564-121.759-95.004-28.662-46.496-32.767-97.96-29.443-152.987zM952.785 455.726c-41.765 23.316-91.629 37.045-144.699 37.045-34.509 0-67.663-5.805-98.537-16.492l2.115 0.637q-36.854 49.005-101.489 72.582c-1.801 0.658-3.613 1.288-5.409 1.963-0.139 0.050-0.173 0.379-0.558 1.255 15.502 15.502 28.283 33.335 37.311 53.722 8.46 18.721 13.794 40.505 14.738 63.422l0.011 0.349c47.087 0 93.616 3.781 139.291-0.836 79.68-8.052 139.035-66.308 154.124-144.851 2.231-11.476 2.833-23.387 2.916-35.131q0.156-16.818 0.184-33.664zM483.714 536.984c-76.396-0.307-139.358 62.076-139.76 138.483-0.407 77.511 61.624 140.312 138.979 140.635 77.020 0.318 139.643-61.73 140.089-138.806 0.446-77.299-61.803-139.983-139.308-140.312zM97.921 821.010c0.848 73.981 57.659 134.234 133.498 138.739 74.037 4.4 134.328-49.758 144.673-117.103 0.184-1.182 0.474-2.353 0.658-3.541 2.264-14.85 1.255-26.839-12.335-38.51-28.127-24.162-44.053-56.449-51.124-92.969-0.558-2.961-3.346-6.335-6.073-7.93-81.303-47.862-188.926 1.405-205.862 94.196-1.634 8.961-2.314 18.078-3.435 27.118zM854.262 820.402c-0.217-78.476-65.098-141.745-143.217-139.375-17.454 0.53-34.4 3.97-50.338 11.197-2.615 1.188-5.376 4.79-5.811 7.623-7.69 49.925-32.393 89.221-73.608 118.218-4.723 3.346-6.53 6.491-6.195 12.184 4.461 75.281 73.24 135.315 148.37 129.304 69.091-5.521 120.795-54.576 129.918-123.349 0.691-5.203 0.602-10.528 0.881-15.803zM808.965 446.793c-141.081 0-255.396-114.343-255.396-255.396s114.315-255.396 255.396-255.396 255.396 114.348 255.396 255.396-114.348 255.396-255.396 255.396zM920.709 170.507h-88.162v-88.106c0-13.197-10.698-23.895-23.895-23.895s-23.895 10.698-23.895 23.895v0 88.106h-88.106c-13.197 0-23.895 10.698-23.895 23.895s10.698 23.895 23.895 23.895v0h88.106v88.156c0 13.197 10.698 23.895 23.895 23.895s23.895-10.698 23.895-23.895v0-88.14h88.162c13.197 0 23.895-10.698 23.895-23.895s-10.698-23.895-23.895-23.895v0z" />
<glyph unicode="&#xe906;" glyph-name="ng-customers-icon" horiz-adv-x="1219" d="M313.916 98.32c0 28.582-0.636 57.183 0.108 85.745 2.931 122.393 101.853 220.734 224.2 222.727l0.19 0.002q80.291 1.413 160.633 0c114.862-2.113 210.714-90.283 222.558-204.222 1.706-16.452 1.273-33.158 1.324-49.743 0.153-50.099-0.089-100.199 0.223-150.298 0.038-6.867-2.183-10.253-8.318-13.193-46.745-22.389-96.374-35.003-147.224-43.080-138.002-21.861-273.414-7.243-407.089 30.026-13.015 3.621-25.801 8.102-38.873 11.456-6.364 1.642-8.038 4.811-7.993 11.017 0.261 33.19 0.127 66.385 0.127 99.581zM271.53 120.849c-37.778 4.799-72.966 8.426-107.81 13.9-52.88 8.274-104.704 21.377-155.79 37.441-6.25 1.967-7.955 4.64-7.93 10.883 0.229 59.938-0.191 119.877 0.216 179.809 0.796 116.026 84.543 210.809 199.774 226.478 8.656 1.171 18.662 1.84 28.824 1.84 0.224 0 0.448 0 0.671-0.001h-0.035q74.322 0.267 148.65 0.038c6.116 0 12.232-0.636 18.946-1.037 2.991-59.283 25.349-109.739 67.849-152.163-67.55-21.829-119.119-62.109-155.714-121.506s-41.883-125.331-37.651-195.681zM839.329 589.391c60.218 0 119.724 4.837 178.135-1.069 101.904-10.297 177.817-84.804 197.113-185.244 2.819-14.676 3.621-29.912 3.729-44.906 0.42-57.164 0.076-114.334 0.325-171.504 0-6.396-1.909-9.75-7.745-12.614-43.194-21.155-89.138-33.444-136.239-41.298-28.773-4.792-57.915-7.325-86.948-10.514-6.956-0.764-14.065-0.115-22.275-0.115 0 5.219 0 10.673 0 16.127-0.057 34.698 1.394 69.504-7.72 103.533-25.514 95.19-84.88 159.38-177.378 193.231-2.304 0.84-4.62 1.642-6.918 2.508-0.178 0.064-0.216 0.484-0.681 1.604 19.831 19.825 36.174 42.64 47.732 68.734 10.821 23.932 17.645 51.781 18.855 81.078l0.015 0.448zM618.604 419.008c-97.704-0.395-178.199 79.388-178.733 177.11-0.509 99.129 78.815 179.44 177.747 179.853 98.499 0.407 178.593-78.917 179.16-177.518 0.573-98.856-79.038-179.045-178.173-179.446zM125.229 782.247c1.082 94.611 73.704 171.669 170.708 177.435 94.706 5.62 171.835-63.642 185.040-149.751 0.235-1.515 0.636-3.010 0.84-4.531 2.896-18.991 1.61-34.322-15.771-49.246-35.977-30.905-56.304-72.196-65.38-118.897-0.738-3.819-4.315-8.102-7.771-10.138-103.96-61.218-241.618 1.795-263.276 120.462-2.087 11.443-2.972 23.109-4.391 34.666zM1092.511 781.47c-0.28-100.364-83.257-181.279-183.163-178.25-22.319 0.681-43.99 5.091-64.374 14.32-3.341 1.521-6.88 6.129-7.433 9.75-9.833 63.852-41.425 114.136-94.108 151.189-6.040 4.251-8.35 8.274-7.923 15.58 5.677 96.253 93.663 173.056 189.756 165.375 88.329-7.064 154.473-69.797 166.107-157.731 0.891-6.676 0.783-13.486 1.139-20.232z" />
<glyph unicode="&#xe907;" glyph-name="ng-customers-search-icon" horiz-adv-x="1067" d="M457.712 248.253c0-0.101 0-0.22 0-0.339 0-31.464 4.933-61.775 14.068-90.204l-0.579 2.085c-63.693 2.426-126.756 13.523-189.328 30.971-10.177 2.838-20.17 6.335-30.397 8.967-4.985 1.283-6.285 3.758-6.246 8.61 0.201 25.952 0.095 51.91 0.095 77.868h0.128c0 22.35-0.48 44.711 0.084 67.044 2.285 95.697 79.624 172.591 175.282 174.158l0.149 0.002q62.784 1.115 125.607 0c26.154-0.486 50.772-6.566 72.867-17.088l-1.071 0.459c-95.367-48.793-160.66-148.041-160.66-262.534zM212.314 303.843c-29.555 3.758-57.029 6.591-84.292 10.874-41.354 6.491-81.877 16.729-121.821 29.276-4.885 1.533-6.201 3.625-6.201 8.509 0.178 46.841-0.151 93.733 0.173 140.596 0.619 90.721 66.102 164.859 156.204 177.088 6.758 0.916 14.569 1.44 22.502 1.44 0.188 0 0.376 0 0.563-0.001h-0.029q58.117 0.206 116.233 0c4.779 0 9.563-0.513 14.816-0.814 2.336-46.351 19.818-85.803 53.053-118.977-52.825-17.069-93.125-48.564-121.759-95.004-28.662-46.496-32.767-97.96-29.443-152.987zM952.762 464.386c-52.474 48.694-123.002 78.572-200.509 78.572-34.228 0-67.095-5.827-97.663-16.542l2.069 0.632c-13.303 8.383-28.628 15.951-44.739 21.899l-1.723 0.557c-1.801 0.658-3.613 1.288-5.409 1.963-0.139 0.050-0.173 0.379-0.558 1.255 15.502 15.502 28.283 33.335 37.311 53.722 8.46 18.721 13.794 40.505 14.738 63.422l0.011 0.349c47.087 0 93.616 3.781 139.291-0.836 79.68-8.052 139.035-66.308 154.124-144.851 2.231-11.476 2.833-23.387 2.916-35.131q0.1-12.491 0.139-25.010zM483.714 536.984c-76.396-0.307-139.358 62.076-139.76 138.483-0.407 77.511 61.624 140.312 138.979 140.635 77.020 0.318 139.643-61.73 140.089-138.806 0.446-77.299-61.803-139.983-139.308-140.312zM97.921 821.010c0.848 73.981 57.659 134.234 133.498 138.739 74.037 4.4 134.328-49.758 144.673-117.103 0.184-1.182 0.474-2.353 0.658-3.541 2.264-14.85 1.255-26.839-12.335-38.51-28.127-24.162-44.053-56.449-51.124-92.969-0.558-2.961-3.346-6.335-6.073-7.93-81.303-47.862-188.926 1.405-205.862 94.196-1.634 8.961-2.314 18.078-3.435 27.118zM854.262 820.402c-0.217-78.476-65.098-141.745-143.217-139.375-17.454 0.53-34.4 3.97-50.338 11.197-2.615 1.188-5.376 4.79-5.811 7.623-7.69 49.925-32.393 89.221-73.608 118.218-4.723 3.346-6.53 6.491-6.195 12.184 4.461 75.281 73.24 135.315 148.37 129.304 69.091-5.521 120.795-54.576 129.918-123.349 0.691-5.203 0.602-10.528 0.881-15.803zM1054.268-4.829l-96.554 96.56c-3.631 3.64-8.070 6.473-13.024 8.207l-0.242 0.074c31.613 40.499 50.689 92.125 50.689 148.208 0 0.128 0 0.255 0 0.383v-0.020c0 134.239-108.822 243.061-243.061 243.061s-243.061-108.822-243.061-243.061 108.817-243.061 243.061-243.061c0.103 0 0.225 0 0.346 0 55.983 0 107.526 19.008 148.527 50.923l-0.543-0.407c1.809-5.209 4.646-9.659 8.292-13.299v0l96.56-96.554c6.269-6.268 14.929-10.146 24.494-10.146s18.225 3.877 24.494 10.146v0c6.275 6.27 10.157 14.934 10.157 24.505 0 9.56-3.873 18.215-10.135 24.483v0zM752.075 73.92c-96.471 0-174.657 78.191-174.657 174.651s78.197 174.657 174.657 174.657 174.651-78.197 174.651-174.657-78.197-174.651-174.651-174.651z" />
<glyph unicode="&#xe908;" glyph-name="ng-delete-2-icon" horiz-adv-x="813" d="M600.926 742.129h-557.465c-8.066-0.003-14.604-6.542-14.604-14.609 0-0.199 0.004-0.397 0.012-0.593l-0.001 0.028 21.526-555.639c2.475-63.836 54.967-114.361 118.877-114.361h151.167c-17.064 35.655-27.031 77.503-27.031 121.678 0 0.147 0 0.293 0 0.44v-0.022q0 13.013 1.13 25.733v406.309c0 11.233 9.106 20.339 20.339 20.339v0h13.306c11.233 0 20.339-9.106 20.339-20.339v0-262.394c21.862 29.813 48.426 54.71 78.848 74.090l1.173 0.699 6.666 187.983c0.398 10.919 9.346 19.62 20.326 19.62 0.26 0 0.519-0.005 0.777-0.015l-0.037 0.001 13.301-0.471c10.916-0.402 19.614-9.348 19.614-20.326 0-0.253-0.005-0.505-0.014-0.756l0.001 0.036-5.693-159.173c29.194 10.918 62.928 17.236 98.138 17.236 0.126 0 0.252 0 0.377 0h-0.019q11.511 0 22.803-0.89l10.737 260.186c0.008 0.18 0.012 0.39 0.012 0.602 0 8.067-6.539 14.607-14.606 14.609v0zM204.303 168.935l-13.301-0.471c-0.214-0.008-0.466-0.013-0.719-0.013-10.978 0-19.924 8.697-20.325 19.577l-0.001 0.037-14.913 421.038c-0.008 0.214-0.013 0.466-0.013 0.719 0 10.978 8.697 19.924 19.577 20.325l0.037 0.001 13.301 0.471c0.214 0.008 0.466 0.013 0.718 0.013 10.987 0 19.939-8.712 20.326-19.604l0.001-0.035 14.928-421.038c0.008-0.208 0.012-0.453 0.012-0.698 0-10.976-8.697-19.922-19.577-20.32l-0.036-0.001zM4.741 755.629c-12.788 53.712-0.581 71.162 47.344 76.133 35.058 3.626 70.016 7.849 107.135 12.061 1.926 11.224 3.364 21.835 5.599 32.274 7.99 37.334 29.83 56.694 68.242 60.671 50.42 5.238 100.877 10.151 151.277 15.593 54.083 5.85 74.6-6.164 93.787-55.841 1.941-5.023 3.809-10.073 6.713-17.749 36.345 3.835 72.146 8.11 108.046 11.271 50.52 4.448 64.7-9.9 62.371-64.559zM209.63 848.914l225.191 24.226c-1.669 30.265-15.786 39.453-41.462 36.277-50.326-6.216-100.673-12.474-151.167-16.979-25.126-2.213-35.973-13.332-32.562-43.524zM582.236 409.41c-127.406 0-230.685-103.284-230.685-230.69s103.279-230.685 230.685-230.685 230.685 103.284 230.685 230.685-103.279 230.69-230.685 230.69zM707.293 103.702c2.577-2.574 4.171-6.132 4.171-10.062s-1.594-7.488-4.171-10.062v0l-31.704-31.704c-2.574-2.577-6.132-4.171-10.062-4.171s-7.488 1.594-10.062 4.171v0l-74.443 74.438-74.427-74.438c-2.574-2.577-6.132-4.171-10.062-4.171s-7.488 1.594-10.062 4.171v0l-31.709 31.683c-2.575 2.575-4.167 6.133-4.167 10.062s1.592 7.487 4.167 10.062l74.443 74.443-74.443 74.443c-2.575 2.576-4.167 6.134-4.167 10.065s1.592 7.488 4.167 10.065l31.709 31.709c2.576 2.573 6.133 4.165 10.062 4.165s7.486-1.591 10.062-4.165v0l74.443-74.443 74.443 74.443c2.576 2.573 6.133 4.165 10.062 4.165s7.486-1.591 10.062-4.165v0l31.704-31.709c2.577-2.575 4.172-6.134 4.172-10.065s-1.594-7.49-4.172-10.065l-74.443-74.438z" />
<glyph unicode="&#xe909;" glyph-name="ng-delete-icon" horiz-adv-x="813" d="M711.824 718.384h-636.554c-0.001 0-0.001 0-0.002 0-9.21 0-16.676-7.466-16.676-16.676 0-0.228 0.005-0.455 0.014-0.681l-0.001 0.032 24.593-634.477c2.826-72.92 62.79-130.582 135.741-130.582h347.637c72.847 0 132.722 57.458 135.726 130.242l26.189 634.749c0.010 0.214 0.015 0.465 0.015 0.717 0 9.21-7.466 16.676-16.676 16.676-0.002 0-0.003 0-0.005 0v0zM261.829 63.971l-20.956-0.743c-0.214-0.008-0.466-0.013-0.719-0.013-10.977 0-19.922 8.698-20.32 19.577l-0.001 0.036-17.267 486.544c-0.008 0.214-0.013 0.466-0.013 0.719 0 10.98 8.7 19.927 19.583 20.325l0.036 0.001 20.956 0.743c0.213 0.008 0.463 0.013 0.714 0.013 10.981 0 19.929-8.699 20.33-19.582l0.001-0.036 17.267-486.539c0.008-0.216 0.013-0.469 0.013-0.724 0-10.98-8.704-19.928-19.589-20.32l-0.036-0.001zM423.607 84.797c0-0.002 0-0.003 0-0.005 0-11.23-9.104-20.333-20.333-20.333h-20.972c-11.23 0-20.333 9.104-20.333 20.333 0 0.002 0 0.004 0 0.006v0 486.847c0 0.002 0 0.003 0 0.005 0 11.23 9.104 20.333 20.333 20.333h20.972c11.23 0 20.333-9.104 20.333-20.333 0-0.002 0-0.004 0-0.006v0zM584.292 569.886l-17.267-486.539c-0.399-10.919-9.346-19.619-20.326-19.619-0.253 0-0.505 0.005-0.755 0.014l0.036-0.001-20.956 0.743c-10.9 0.421-19.577 9.36-19.577 20.324 0 0.253 0.005 0.506 0.014 0.757l-0.001-0.036 17.267 486.544c0.402 10.916 9.348 19.614 20.326 19.614 0.253 0 0.505-0.005 0.756-0.014l-0.036 0.001 20.93-0.743c10.911-0.404 19.603-9.347 19.603-20.32 0-0.255-0.005-0.509-0.014-0.761l0.001 0.037zM31.055 733.799c-14.604 61.335-0.665 81.261 54.062 86.938 40.008 4.144 79.947 8.974 122.336 13.772 2.192 12.82 3.835 24.933 6.389 36.852 9.125 42.645 34.043 64.726 77.928 69.278 57.557 5.981 115.188 11.585 172.74 17.79 61.743 6.677 85.18-7.038 107.094-63.763 2.219-5.756 4.353-11.511 7.66-20.265 41.504 4.374 82.386 9.262 123.382 12.872 57.683 5.076 73.878-11.307 71.22-73.721zM265.016 840.322l257.13 27.696c-1.905 34.534-18.026 45.047-47.344 41.426-57.463-7.101-114.958-14.248-172.615-19.36-28.685-2.585-41.086-15.284-37.172-49.761z" />
<glyph unicode="&#xe90a;" glyph-name="ng-edit-icon" horiz-adv-x="1064" d="M660.809 805.727l184.79-184.79-469.408-469.408-184.79 184.79 469.408 469.408zM893.215 939.587l86.245-86.245c27.205-27.205 27.205-71.312 0-98.517v0l-86.935-86.935-184.778 184.778 86.923 86.923c27.205 27.205 71.312 27.205 98.517 0v0zM143.464 288.388l184.782-184.788-216.732-55.083c-1.057-0.279-2.271-0.439-3.523-0.439-7.929 0-14.356 6.427-14.356 14.356 0 1.102 0.124 2.174 0.359 3.205l-0.018-0.096zM27.307 0.791h1009.817c15.081 0 27.307-12.226 27.307-27.307v-10.176c0-15.081-12.226-27.307-27.307-27.307h-1009.817c-15.081 0-27.307 12.226-27.307 27.307v10.176c0 15.081 12.226 27.307 27.307 27.307z" />
<glyph unicode="&#xe90b;" glyph-name="ng-expence-add-icon" horiz-adv-x="1047" d="M739.328 390.749v-49.237c0-42.918 34.792-77.71 77.71-77.71v0h134.82c1.797 0 3.254-1.457 3.254-3.254v0-71.859c0-44.119-35.766-79.885-79.885-79.885v0h-337.78c-0.002 0-0.005 0-0.008 0-1.797 0-3.254 1.457-3.254 3.254 0 0.26 0.030 0.512 0.088 0.754l-0.004-0.022c3.32 13.735 5.713 29.884 6.678 46.416l0.035 0.76c9.441 166.032-127.489 304.599-293.624 297.084-19.834-0.911-38.545-3.729-56.562-8.29l1.94 0.416c-0.234-0.060-0.504-0.095-0.781-0.095-1.797 0-3.254 1.457-3.254 3.254 0 0.003 0 0.006 0 0.009v0 91.749c0.012 44.11 35.773 79.863 79.885 79.863h606.65c44.111 0 79.872-35.753 79.885-79.862v-72.392c0-1.797-1.457-3.254-3.254-3.254v0h-134.836c-0.006 0-0.014 0-0.022 0-42.903 0-77.683-34.78-77.683-77.683 0-0.006 0-0.011 0-0.017v0.001zM987.024 437.052h-176.774c-23.223 0-42.049-18.824-42.052-42.046v0-57.739c0.003-23.222 18.829-42.046 42.052-42.046h176.774c23.22 0.003 42.043 18.826 42.046 42.046v0 57.739c-0.003 23.22-18.826 42.043-42.046 42.046v0zM855.582 307.372c-32.592 0-59.013 26.421-59.013 59.013s26.421 59.013 59.013 59.013c32.592 0 59.013-26.421 59.013-59.013v0c-0.003-32.591-26.422-59.010-59.013-59.013v0zM885.216 366.386c0-16.366-13.268-29.634-29.634-29.634s-29.634 13.268-29.634 29.634c0 16.366 13.268 29.634 29.634 29.634s29.634-13.268 29.634-29.634zM388.356 656.339l253.774 129.056c1.453 0.75 2.429 2.241 2.429 3.959 0 0.187-0.012 0.372-0.034 0.553l0.002-0.022-6.756 55.727c-4.392 36.201-47.637 52.571-74.896 28.349l-236.829-210.459c-2.944-2.711-0.916-7.64 3.080-7.64h57.218c0.001 0 0.002 0 0.003 0 0.733 0 1.424 0.176 2.034 0.489l-0.025-0.012zM757.657 655.878c2.011 0.001 3.676 1.484 3.961 3.416l0.003 0.022 10.547 74.245c5.13 36.109-32.41 63.113-65.011 46.764l-233.093-116.866c-3.796-1.892-2.424-7.592 1.795-7.592h281.798zM1040.186 846.078q-30.393 36.743-60.814 73.464c-6.784 8.134-13.784 16.132-20.687 24.195h-4.202c-8.042-8.936-16.197-17.78-24.109-26.836q-30.366-34.764-60.564-69.679c-2.305-2.657-5.005-5.2-2.825-9.18 2.229-4.067 5.694-3.525 9.571-2.896 14.446 2.348 28.94 4.398 44.622 6.735-1.746-9.419-2.934-18.344-5.097-27.031-11.208-45.007-41.33-70.081-85.394-80.107-6.285-1.432-12.775-1.93-19.044-3.411-2.646-0.624-4.962-2.668-7.429-4.067v-4.23c3.4-5.715 9.706-5.786 15.031-7.131 9.218-2.332 18.686-3.704 28.051-5.477h19.966c0.98 0.343 2.159 0.645 3.371 0.849l0.132 0.018c18.605 1.627 35.789 7.592 51.579 17.379 31.993 19.836 52.935 48.64 65.645 83.621 3.422 9.408 5.423 19.331 8.134 29.347 12.060-2.109 24.439-4.007 36.689-6.55 4.463-0.927 7.375 0.195 9.907 3.541v4.24c-0.824 1.057-1.659 2.169-2.532 3.205zM260.211 415.931c-132.022 0-239.063-107.024-239.063-239.046s107.041-239.030 239.063-239.030 239.046 107.024 239.046 239.046-107.024 239.030-239.046 239.030zM364.8 157.331h-82.493v-82.493c0.002-0.104 0.003-0.226 0.003-0.348 0-12.353-10.014-22.368-22.368-22.368s-22.368 10.014-22.368 22.368c0 0.122 0.001 0.245 0.003 0.367v-0.018 82.493h-82.493c-12.203 0.196-22.020 10.134-22.020 22.365s9.817 22.169 22.001 22.365h82.511v82.498c0.196 12.203 10.134 22.020 22.365 22.020s22.169-9.817 22.365-22.001v-82.516h82.493c0.104 0.002 0.226 0.003 0.348 0.003 12.353 0 22.368-10.014 22.368-22.368s-10.014-22.368-22.368-22.368c-0.122 0-0.245 0.001-0.367 0.003h0.018z" />
<glyph unicode="&#xe90c;" glyph-name="ng-expence-icon" horiz-adv-x="1047" d="M675.316 222.342v58.514c0.009 53.144 43.093 96.223 96.239 96.223 0 0 0 0 0 0h163.484c2.728 0 4.94 2.212 4.94 4.94v0 86.896c0 54.628-44.285 98.912-98.912 98.912h-742.154c-54.626-0.005-98.912-44.286-98.912-98.912v-433.997c0-54.628 44.285-98.912 98.912-98.912v0h742.154c54.628 0 98.912 44.285 98.912 98.912v0 86.251c0 2.728-2.212 4.94-4.94 4.94v0h-163.484c-0.003 0-0.007 0-0.011 0-53.145 0-96.228 43.083-96.228 96.228 0 0.002 0 0.004 0 0.006v0zM979.107 338.579h-216.809c-28.482-0.003-51.571-23.092-51.574-51.573v0-70.813c0.003-28.482 23.092-51.571 51.573-51.574h216.809c28.482 0.003 51.571 23.092 51.574 51.573v0 70.807c0 28.484-23.090 51.576-51.573 51.579v0zM817.895 179.536c-39.974 0-72.38 32.406-72.38 72.38s32.406 72.38 72.38 72.38c39.974 0 72.38-32.406 72.38-72.38v0c0-0.002 0-0.004 0-0.005 0-39.974-32.406-72.38-72.38-72.38v0zM854.237 251.911c0-20.071-16.271-36.342-36.342-36.342s-36.342 16.271-36.342 36.342c0 20.071 16.271 36.342 36.342 36.342s36.342-16.271 36.342-36.342zM244.865 607.536l311.253 158.3c1.775 0.915 2.968 2.736 2.968 4.835 0 0.232-0.015 0.46-0.043 0.684l0.003-0.027-8.291 68.356c-5.395 44.4-58.433 64.463-91.863 34.78l-290.457-258.134c-3.617-3.319-1.166-9.37 3.742-9.37h70.211c0.014 0 0.031 0 0.048 0 0.886 0 1.722 0.212 2.461 0.589l-0.031-0.014zM699.267 606.961c0.001 0 0.003 0 0.004 0 1.613 0 2.948 1.192 3.172 2.743l0.002 0.017 13.139 92.519c6.296 44.286-39.747 77.401-79.711 57.354l-292.274-146.549c-1.064-0.538-1.78-1.622-1.78-2.874 0-1.773 1.437-3.21 3.21-3.21 0.002 0 0.005 0 0.007 0v0zM1044.302 840.227q-37.274 45.061-74.581 90.101c-8.307 10.010-16.907 19.787-25.372 29.672h-5.168c-9.864-10.964-19.868-21.809-29.569-32.915q-37.242-42.637-74.289-85.459c-2.831-3.254-6.138-6.377-3.465-11.263 2.711-4.989 6.984-4.338 11.734-3.552 17.715 2.879 35.496 5.39 54.73 8.259-2.169-11.55-3.595-22.498-6.247-33.153-13.73-55.196-50.673-85.931-104.725-98.251-7.705-1.751-15.671-2.37-23.36-4.181-3.254-0.765-6.084-3.254-9.11-4.983v-5.157c4.17-7.006 11.93-7.098 18.437-8.747 11.311-2.858 22.921-4.544 34.4-6.719h24.488c1.432 0.363 2.847 0.938 4.295 1.085 22.818 1.985 43.922 9.327 63.265 21.311 39.264 24.331 64.924 59.648 80.514 102.562 4.192 11.539 6.648 23.713 10.010 35.989 14.787-2.587 29.976-4.913 45.007-8.031 5.471-1.139 9.045 0.239 12.146 4.338v5.157c-1.041 1.307-2.066 2.641-3.14 3.937z" />
<glyph unicode="&#xe90d;" glyph-name="ng-home-icon" horiz-adv-x="1192" d="M1042.449 438.86v-426.798c0-42.023-34.064-76.089-76.086-76.093h-214.885v378.735c0 30.429-24.668 55.097-55.097 55.097v0h-203.326c-30.429 0-55.097-24.668-55.097-55.097v0-378.704h-215.584c-42.022 0.004-76.086 34.070-76.086 76.093v0 426.767h-0.2l421.162 289.692c7.553 5.253 16.919 8.393 27.018 8.393s19.465-3.14 27.175-8.496l-0.157 0.103zM694.795 907.83l-54.635 38.259c-12.295 8.703-27.6 13.912-44.122 13.912s-31.827-5.209-44.363-14.074l0.241 0.162-519.106-363.481c-19.94-14.093-32.802-37.052-32.802-63.015 0-16.521 5.208-31.826 14.072-44.362l-0.162 0.241c14.092-19.947 37.055-32.814 63.023-32.814 16.528 0 31.839 5.212 44.379 14.083l-0.241-0.161 430.836 301.687c12.295 8.703 27.6 13.912 44.122 13.912s31.827-5.209 44.363-14.074l-0.241 0.162 430.83-301.687c12.295-8.702 27.6-13.91 44.121-13.91 25.963 0 48.922 12.862 62.853 32.561l0.162 0.241c8.702 12.295 13.91 27.6 13.91 44.121 0 25.963-12.862 48.922-32.561 62.853l-0.241 0.162z" />
<glyph unicode="&#xe90e;" glyph-name="ng-logout-icon" horiz-adv-x="863" d="M353.826 533.955h-62.616v126.103c0 0.004 0 0.009 0 0.014 0 6.089-4.936 11.026-11.026 11.026-2.607 0-5.003-0.905-6.891-2.418l0.022 0.017-269.141-213.797c-2.553-2.037-4.174-5.149-4.174-8.639s1.622-6.601 4.152-8.622l0.022-0.017 269.141-213.792c1.866-1.496 4.262-2.401 6.869-2.401 6.089 0 11.026 4.936 11.026 11.026 0 0.005 0 0.010 0 0.015v-0.001 126.103h62.616c10.227 0 18.518 8.291 18.518 18.518v0 138.347c0 10.227-8.291 18.518-18.518 18.518v0zM203.527 229.051v0c-16.021 12.724-39.655 1.318-39.655-19.146v-94.486c0-38.513 31.221-69.733 69.733-69.733 0.002 0 0.004 0 0.006 0h329.122c13.501 0 24.447 10.943 24.45 24.444v0c0 13.503-10.947 24.45-24.45 24.45h-325.517c-13.503 0-24.45 10.947-24.45 24.45v0 90.875c0 0.001 0 0.002 0 0.004 0 7.731-3.589 14.625-9.191 19.105l-0.049 0.038zM163.872 778.393v-95.782c0-20.464 23.634-31.87 39.655-19.146v0c5.651 4.518 9.24 11.411 9.24 19.143 0 0.001 0 0.003 0 0.004v0 92.154c0 13.503 10.947 24.45 24.45 24.45v0h325.517c13.501 0 24.447 10.943 24.45 24.444v0c0 13.503-10.947 24.45-24.45 24.45v0h-329.122c-38.508 0-69.726-31.21-69.739-69.715v-0.001zM835.855 878.806l-382.449 80.461c-2.090 0.462-4.49 0.726-6.952 0.726-18.573 0-33.629-15.056-33.629-33.629 0-0.013 0-0.026 0-0.039v0.002-956.648c0-0.011 0-0.024 0-0.037 0-18.573 15.056-33.629 33.629-33.629 2.462 0 4.862 0.265 7.174 0.767l-0.222-0.040 382.449 80.461c15.38 3.315 26.738 16.8 26.738 32.938 0 0.001 0 0.001 0 0.002v0 795.742c-0.012 16.13-11.365 29.606-26.516 32.883l-0.222 0.040zM511.225 385.398c0-11.15-9.039-20.188-20.188-20.188s-20.188 9.039-20.188 20.188v0 123.87c0 11.15 9.039 20.188 20.188 20.188s20.188-9.039 20.188-20.188v0z" />
<glyph unicode="&#xe90f;" glyph-name="ng-nego-icon" horiz-adv-x="4341" d="M856.081 960h-688.163c-92.736-0.006-167.912-75.182-167.919-167.918v-688.164c0-92.739 75.18-167.919 167.919-167.919v0h688.163c92.739 0 167.919 75.18 167.919 167.919v0 688.163c0 92.739-75.18 167.919-167.919 167.919v0zM717.367 189.296h-83.342l-216.382 341.756v-341.756h-104.347v518.23h83.331l217.094-341.756v341.756h103.646zM1961.821 960h-688.174c-92.734-0.006-167.908-75.184-167.908-167.919v0-688.163c0-0.003 0-0.007 0-0.011 0-92.733 75.175-167.908 167.908-167.908h688.174c92.739 0 167.919 75.18 167.919 167.919v0 688.163c-0.006 92.736-75.182 167.912-167.918 167.919h-0.001zM1757.978 611.58h-193.285q-21.728 0-33.622-10.503t-11.893-32.264v-74.92l205.189-5.563v-81.929l-205.189-5.563v-71.437q0-18.201 5.952-28.359c3.579-6.389 9.163-11.293 15.887-13.923l0.211-0.073c6.267-2.445 13.523-3.861 21.109-3.861 0.089 0 0.177 0 0.266 0.001h195.374v-86.78q-30.818-3.527-68.278-5.563t-75.654-3.493q-38.161-1.391-72.472-1.402c-13.679 0.108-27.009 1.213-40.031 3.244l1.525-0.196c-15.612 2.353-29.652 7.396-42.241 14.67l0.576-0.307q-19.959 11.181-32.91 33.966t-12.961 62.659v289.266q0 34.289 10.503 57.43t28.014 36.292c10.909 8.407 23.773 14.911 37.744 18.733l0.773 0.18c12.375 3.484 26.595 5.511 41.28 5.563h0.030q52.535 0 92.799-1.402t72.483-3.149q32.186-1.769 58.821-4.561zM3067.561 960h-688.174c-92.736-0.006-167.912-75.182-167.919-167.918v-688.164c0-92.739 75.18-167.919 167.919-167.919v0h688.174c92.733 0 167.908 75.175 167.908 167.908 0 0.004 0 0.008 0 0.012v-0.001 688.163c0 92.735-75.173 167.912-167.907 167.919h-0.001zM2898.018 189.296h-77.679l-14.007 35.023q-20.326-11.916-57.419-25.211t-80.538-13.351q-49.031 0-80.182 18.557t-48.674 53.225q-17.512 34.656-24.476 82.986t-6.998 107.84q0 62.303 8.044 111.356t28.715 82.975q20.638 33.966 58.12 51.823t96.292 17.857q35.713 0 65.485-2.804c21.808-2.019 41.065-4.86 59.981-8.646l-3.608 0.603q26.601-5.251 53.214-12.238v-79.837q-14.686 2.103-39.207 4.205t-54.638 3.849q-30.106 1.736-62.303 1.758-44.102 0-66.876-15.765t-31.152-53.214q-8.411-37.482-8.411-102.6 0-50.432 4.55-82.641t14.953-50.744q10.514-18.557 27.68-25.912t42.355-7.354c0.306-0.001 0.668-0.002 1.030-0.002 19.070 0 37.723 1.786 55.801 5.2l-1.859-0.292c17 2.993 31.273 6.398 45.231 10.539l-2.854-0.726v100.831h-93.144v81.929q14.697 2.103 35.012 3.505t42.366 2.459q22.062 1.035 42.366 1.046 22.407 0 40.275-0.356t32.553-1.747zM3930.93 537.35q5.563-33.61 5.563-89.639 0-53.236-5.563-86.49t-17.857-51.122c-7.969-11.614-19.411-20.335-32.815-24.727l-0.45-0.128q-21.016-7.009-52.524-7.009t-52.869 7.009c-14.086 4.494-25.762 13.214-33.852 24.65l-0.137 0.204q-12.572 17.868-17.801 51.122t-5.251 86.49q0 56.017 5.952 89.639t18.914 51.478c8.225 11.454 19.913 19.963 33.516 24.038l0.45 0.116q21.016 6.308 51.178 6.308 31.519 0 52.524-6.308c13.891-4.075 25.395-12.622 33.132-23.947l0.134-0.207q12.149-17.868 17.756-51.478zM4173.29 960h-688.163c-92.739 0-167.919-75.18-167.919-167.919v0-688.163c0-92.739 75.18-167.919 167.919-167.919v0h688.163c92.739 0 167.919 75.18 167.919 167.919v0 688.163c-0.006 92.736-75.182 167.912-167.918 167.919h-0.001zM4026.877 312.557q-13.351-51.845-39.919-79.481t-66.531-37.827q-39.919-10.147-93.144-10.158t-93.132 10.158q-39.941 10.135-66.876 37.827t-40.275 79.481q-13.351 51.801-13.351 135.154t13.651 135.51q13.673 52.146 40.275 80.182t66.531 38.517q39.919 10.491 93.132 10.503t93.144-10.503q39.896-10.514 66.531-38.517t39.919-80.182q13.284-52.168 13.351-135.51t-13.306-135.154z" />
<glyph unicode="&#xe910;" glyph-name="ng-negobill_icon" horiz-adv-x="957" d="M718.887 159.653v-20.046c0-112.449-91.146-203.594-203.588-203.594h-311.685c-112.436-0.013-203.582 91.133-203.582 203.582v348.864c0 110.048 87.344 199.737 196.51 203.463v-304.888c0-125.586 101.794-227.38 227.392-227.38zM753.633 960h-311.629c-112.442 0-203.588-91.152-203.588-203.582v-64.309l0.125-0.188v-284.498c0-112.442 91.139-203.582 203.576-203.582l311.516 0.119c112.442 0 203.582 91.139 203.582 203.588v348.87c0 112.43-91.139 203.582-203.582 203.582zM385.167 789.345h370.304c10.016-0.191 18.063-8.355 18.063-18.399s-8.047-18.208-18.045-18.398h-370.322c-10.016 0.191-18.063 8.355-18.063 18.399s8.047 18.208 18.045 18.398h0.018zM386.161 500.795c-10.016 0.191-18.063 8.355-18.063 18.399s8.047 18.208 18.045 18.398h325.309c10.016-0.191 18.063-8.355 18.063-18.399s-8.047-18.208-18.045-18.398h-0.018zM810.489 374.49h-304.057c-0.101-0.002-0.22-0.003-0.339-0.003-10.163 0-18.402 8.239-18.402 18.402s8.239 18.402 18.402 18.402c0.119 0 0.238-0.001 0.357-0.003h304.014c0.101 0.002 0.22 0.003 0.339 0.003 10.163 0 18.402-8.239 18.402-18.402s-8.239-18.402-18.402-18.402c-0.119 0-0.238 0.001-0.357 0.003h0.018zM810.489 626.637h-347.344c-10.016 0.191-18.063 8.355-18.063 18.399s8.047 18.208 18.045 18.398h347.362c10.016-0.191 18.063-8.355 18.063-18.399s-8.047-18.208-18.045-18.398h-0.018z" />
<glyph unicode="&#xe911;" glyph-name="ng-negobill-full-icon" horiz-adv-x="5759" d="M4267.063 144.874v585.455h230.221q86.974 0 126.981-39.947t39.962-113.539q0-34.805-9.888-61.309t-28.091-43.517c-11.842-11.047-26.535-19.191-42.851-23.207l-0.666-0.139c13.955-3.606 26.199-8.776 37.445-15.452l-0.657 0.361c12.624-7.512 23.35-16.721 32.276-27.477l0.163-0.202c9.841-11.977 17.649-26.063 22.634-41.421l0.254-0.906q8.301-24.932 8.301-57.372 0-59.325-20.172-94.939t-59.34-51.025q-39.153-15.426-96.129-15.426zM4384.142 489.030h113.935q25.314 0 39.962 18.585t14.633 48.659q0.778 38.741-15.823 53.802t-40.359 15.030h-112.349zM4384.142 250.097h120.268q20.553 0 35.598 7.904c10.221 5.552 18.274 13.988 23.205 24.212l0.141 0.324q8.316 16.617 8.301 44.25 0 22.888-8.697 38.772c-5.608 10.295-13.68 18.622-23.449 24.376l-0.293 0.16c-9.621 5.481-21.14 8.712-33.413 8.712-0.489 0-0.977-0.005-1.464-0.015l0.073 0.001h-120.268zM4763.118 144.874v585.455h117.094v-585.455zM5119.924 144.874q-45.089 0-76.293 13.839c-20.47 8.95-36.712 24.409-46.432 43.715l-0.244 0.535q-15.426 30.517-15.426 80.306v447.075h117.094v-427.987q0-18.997 6.729-30.853c3.998-7.47 10.434-13.195 18.226-16.186l0.237-0.080c7.632-2.762 16.441-4.359 25.623-4.359 0.449 0 0.898 0.004 1.345 0.011l-0.067-0.001h185.193v-106.016zM5543.195 144.874q-45.119 0-76.293 13.839c-20.47 8.95-36.712 24.409-46.432 43.715l-0.244 0.535q-15.426 30.517-15.426 80.306v447.075h117.094v-427.987q0-18.997 6.714-30.853c4.039-7.471 10.524-13.185 18.361-16.141l0.239-0.079c7.629-2.762 16.435-4.359 25.613-4.359 0.453 0 0.905 0.004 1.356 0.012l-0.068-0.001h185.071v-106.016zM1702.852 805.034h-474.281c-63.916-0.009-115.727-51.82-115.736-115.735v-474.328c0-63.919 51.817-115.736 115.736-115.736h474.281c63.919 0 115.736 51.817 115.736 115.736v0 474.327c0 63.919-51.817 115.736-115.736 115.736v0zM1607.288 273.824h-57.448l-149.106 235.546v-235.546h-71.959v357.187h57.433l149.64-235.576v235.576h71.44zM2465.031 805.034h-474.327c-63.916-0.009-115.727-51.82-115.736-115.735v-474.328c0-0.004 0-0.010 0-0.015 0-63.911 51.81-115.721 115.721-115.721h474.342c63.919 0 115.736 51.817 115.736 115.736v0 474.327c-0.009 63.916-51.82 115.727-115.735 115.736h-0.001zM2324.53 278.722q-21.24-2.426-47.057-3.83t-52.154-2.411q-26.29-0.961-49.941-0.977c-9.438 0.082-18.629 0.845-27.609 2.241l1.059-0.136c-10.761 1.629-20.436 5.105-29.115 10.115l0.399-0.212c-9.608 5.645-17.317 13.594-22.518 23.109l-0.156 0.313q-8.926 15.701-8.941 43.197v199.414q0 23.651 7.233 39.672c4.393 10.074 10.973 18.479 19.179 24.904l0.139 0.105c7.519 5.795 16.387 10.277 26.018 12.907l0.532 0.124c8.528 2.401 18.328 3.801 28.448 3.845h0.025q36.208 0 63.964-0.977t49.956-2.167q22.186-1.221 40.542-3.143v-60.012h-133.222q-14.969 0-23.178-7.233t-8.194-22.247v-51.635l141.431-3.83v-56.457l-141.431-3.845v-49.239q0-12.543 4.105-19.546c2.469-4.4 6.316-7.779 10.947-9.593l0.146-0.050c4.315-1.681 9.31-2.655 14.532-2.655 0.068 0 0.135 0 0.203 0h134.662zM3227.179 805.034h-474.342c-63.916-0.009-115.727-51.82-115.736-115.735v-474.328c0-63.919 51.817-115.736 115.736-115.736v0h474.342c63.914 0 115.727 51.808 115.736 115.72v474.343c-0.009 63.916-51.82 115.727-115.735 115.736h-0.001zM3110.314 273.824h-53.542l-9.643 24.139q-14.007-8.224-39.581-17.379c-16.116-5.805-34.714-9.161-54.095-9.161-0.498 0-0.995 0.002-1.492 0.007l0.076-0.001q-33.782 0-55.266 12.787c-14.482 8.803-25.959 21.26-33.34 36.112l-0.229 0.509q-12.054 23.895-16.784 57.204c-3.076 21.357-4.832 46.018-4.832 71.090 0 1.137 0.004 2.274 0.011 3.41l-0.001-0.175c-0.011 1.209-0.017 2.638-0.017 4.068 0 25.659 2.020 50.847 5.91 75.412l-0.354-2.715q5.539 33.798 19.836 57.189c9.593 15.584 23.249 27.843 39.506 35.483l0.562 0.238q25.817 12.283 66.359 12.298 24.627 0 45.135-1.923c15.049-1.4 28.324-3.362 41.365-5.972l-2.501 0.418q18.31-3.616 36.62-8.438v-55.022q-10.269 1.404-27.053 2.93t-37.673 2.655q-20.736 1.19-42.938 1.205-30.395 0-46.096-10.864t-21.469-36.62q-5.798-25.817-5.798-70.708 0-34.759 3.143-56.96t10.3-34.988q7.248-12.771 19.073-17.852t29.205-5.066c0.221-0.001 0.483-0.001 0.745-0.001 13.131 0 25.975 1.228 38.424 3.574l-1.281-0.201c11.744 2.082 21.58 4.432 31.201 7.282l-1.996-0.507v69.411h-64.193v56.457c6.744 0.977 14.786 1.77 24.124 2.426s19.073 1.205 29.205 1.694 19.836 0.717 29.205 0.717q15.457 0 27.755-0.244t22.445-1.205zM3810.055 549.195c-5.411 7.945-13.327 13.836-22.595 16.573l-0.293 0.074q-14.465 4.349-36.193 4.349-20.797 0-35.278-4.349c-9.687-2.884-17.743-8.75-23.317-16.516l-0.089-0.131q-8.957-12.314-13.046-35.476t-4.196-61.828q0-36.62 3.616-59.615t12.283-35.232c5.662-8.031 13.71-14.045 23.104-17.048l0.318-0.088q14.709-4.837 36.437-4.837t36.208 4.837c9.534 3.122 17.407 9.134 22.791 16.986l0.097 0.149q8.499 12.314 12.314 35.232t3.86 59.615q0 38.619-3.83 61.782t-12.192 35.522zM3989.297 805.034h-474.327c-63.919 0-115.736-51.817-115.736-115.736v0-474.327c0-63.919 51.817-115.736 115.736-115.736h474.327c63.919 0 115.736 51.817 115.736 115.736v0 474.327c-0.009 63.916-51.82 115.727-115.735 115.736h-0.001zM3888.377 358.814q-9.155-35.751-27.465-54.793c-12.173-12.523-27.756-21.67-45.251-25.943l-0.647-0.133q-27.465-7.004-64.208-7.004t-64.193 7.004c-18.196 4.431-33.837 13.567-46.081 26.047l-0.015 0.015q-18.554 19.088-27.755 54.793t-9.155 93.077q0 57.448 9.415 93.397t27.664 55.327c12.12 12.654 27.651 21.949 45.117 26.407l0.658 0.142q27.465 7.233 64.193 7.233t64.208-7.233c18.147-4.608 33.701-13.901 45.821-26.518l0.031-0.032q18.31-19.302 27.465-55.266t9.155-93.397q0.259-57.448-8.957-93.123zM196.515 387.027v304.896c-109.33-3.931-196.473-93.488-196.515-203.407v-348.936c0-0.005 0-0.010 0-0.015 0-112.425 91.139-203.564 203.564-203.564 0.005 0 0.011 0 0.016 0h311.7c112.434 0 203.579 91.146 203.579 203.579 0 0.005 0 0.011 0 0.016v-0.001 20.050h-294.947c-0.014 0-0.030 0-0.046 0-125.563 0-227.352 101.789-227.352 227.352 0 0.011 0 0.021 0 0.032v-0.002zM753.619 960h-311.64c-112.437 0-203.586-91.144-203.595-203.578v-64.316l0.122-0.183v-284.511c0-112.434 91.146-203.579 203.579-203.579v0l311.533 0.122c0.005 0 0.010 0 0.015 0 112.425 0 203.564 91.139 203.564 203.564 0 0.005 0 0.011 0 0.016v-0.001 348.886c0 112.434-91.146 203.579-203.579 203.579v0zM828.538 644.698c-0.184-9.897-8.155-17.873-18.033-18.066h-347.378c-10.163 0-18.402 8.239-18.402 18.402s8.239 18.402 18.402 18.402h347.345c10.017-0.178 18.070-8.341 18.070-18.384 0-0.124-0.001-0.248-0.004-0.372v0.019zM385.156 789.349h370.294c10.163 0 18.402-8.239 18.402-18.402s-8.239-18.402-18.402-18.402h-370.309c-10.163 0-18.402 8.239-18.402 18.402s8.239 18.402 18.402 18.402v0zM386.132 500.718c-9.932 0.295-17.872 8.417-17.872 18.394s7.939 18.099 17.845 18.394l0.027 0.001h325.297c9.932-0.295 17.872-8.417 17.872-18.394s-7.939-18.099-17.845-18.394l-0.027-0.001zM811.128 374.408h-304.713c-0.223-0.010-0.484-0.015-0.747-0.015-10.163 0-18.402 8.239-18.402 18.402s8.239 18.402 18.402 18.402c0.021 0 0.042 0 0.063 0h304.71c0.223 0.010 0.484 0.015 0.747 0.015 10.163 0 18.402-8.239 18.402-18.402s-8.239-18.402-18.402-18.402c-0.021 0-0.042 0-0.063 0h0.003z" />
<glyph unicode="&#xe912;" glyph-name="ng-product-add-icon" horiz-adv-x="1126" d="M852.286 750.925h-735.711c-31.868 0-57.702-25.834-57.702-57.702v0-466.27c0.013-31.858 25.843-57.679 57.702-57.679 0 0 0 0 0 0h435.511q-1.217 13.733-1.223 27.778c0 172.084 139.503 311.588 311.588 311.588 0.037 0 0.081 0 0.125 0 16.734 0 33.162-1.31 49.188-3.834l-1.775 0.23v188.187c0 31.868-25.834 57.702-57.702 57.702v0zM638.067 506.476c-7.278-7.3-17.345-11.817-28.466-11.817-0.019 0-0.037 0-0.056 0h-248.573c-0.145-0.002-0.316-0.003-0.487-0.003-22.277 0-40.336 18.059-40.336 40.336s18.059 40.336 40.336 40.336c0.171 0 0.342-0.001 0.513-0.003h248.562c0.001 0 0.002 0 0.003 0 22.274 0 40.33-18.056 40.33-40.33 0-11.138-4.515-21.221-11.814-28.519v0zM63.975 960h840.91c34.034 0 61.624-27.59 61.624-61.624v-42.476c0-34.034-27.59-61.624-61.624-61.624h-840.91c-34.034 0-61.624 27.59-61.624 61.624v42.476c0 34.034 27.59 61.624 61.624 61.624zM862.509 458.168c-144.194 0-261.087-116.892-261.087-261.087s116.892-261.081 261.087-261.081 261.081 116.869 261.081 261.081-116.892 261.087-261.081 261.087zM976.739 175.74h-90.096v-90.102c0-13.491-10.936-24.427-24.427-24.427s-24.427 10.936-24.427 24.427v90.102h-90.102c-13.491 0-24.427 10.936-24.427 24.427s10.936 24.427 24.427 24.427h90.102v90.090c0 13.491 10.936 24.427 24.427 24.427s24.427-10.936 24.427-24.427v0-90.102h90.096c13.491 0 24.427-10.936 24.427-24.427s-10.936-24.427-24.427-24.427v0z" />
<glyph unicode="&#xe913;" glyph-name="ng-product-icon" horiz-adv-x="1249" d="M1100.641 689.255h-952.725c-41.268-0.004-74.721-33.457-74.724-74.724v0-603.826c0.004-41.266 33.458-74.718 74.724-74.718h952.725c41.267 0 74.721 33.452 74.724 74.718v0 603.826c-0.004 41.268-33.457 74.721-74.724 74.724v0zM823.233 372.695c-9.427-9.453-22.464-15.302-36.867-15.302-0.024 0-0.048 0-0.072 0h-321.902c-28.846 0-52.231 23.385-52.231 52.231s23.385 52.231 52.231 52.231h321.906c28.846-0.001 52.229-23.385 52.229-52.231 0-14.421-5.844-27.477-15.294-36.929v0zM68.341 960h1111.875c37.744 0 68.341-30.597 68.341-68.341v-77.926c0-37.744-30.597-68.341-68.341-68.341h-1111.875c-37.744 0-68.341 30.597-68.341 68.341v77.926c0 37.744 30.597 68.341 68.341 68.341z" />
<glyph unicode="&#xe914;" glyph-name="ng-profile-icon" horiz-adv-x="1023" d="M1023.345 448.038c-0.027-282.154-229.642-512.15-511.189-512.038-282.981 0.113-512.548 229.814-512.156 512.451 0.392 282.342 229.486 511.833 510.668 511.549 283.405-0.285 512.709-229.266 512.677-511.962zM809.36 94.325c130.941 106.259 202.597 298.070 145.6 486.657-59.752 197.676-240.176 331.029-445.581 330.304-203.58-0.704-383.342-135.249-441.338-331.051-58.27-196.699 21.69-384.717 145.976-486.077 66.198 114.096 163.557 179.247 296.899 179.505 133.696 0.274 231.366-64.802 298.446-179.338zM511.269 309.781c-107.014 0.455-193.589 87.311-193.589 194.387 0 0.531 0.002 1.062 0.006 1.592l-0.001-0.081c0.591 106.742 88.259 193.030 195.522 192.444 107.091-0.585 193.282-88.388 192.52-196.113-0.773-106.044-88.635-192.906-194.459-192.23z" />
<glyph unicode="&#xe915;" glyph-name="ng-recent-icon" horiz-adv-x="1064" d="M552.090 960c-151.972 0-288.473-66.21-382.24-171.358l-56.637 51.227c-16.63 15.034-43.283 6.436-47.995-15.477l-64.542-300.358c-4.712-21.908 16.076-40.7 37.396-33.815l292.392 94.271c21.325 6.879 27.213 34.269 10.593 49.303l-66.809 60.423c68.838 77.425 169.534 125.891 281.533 124.804 204.724-1.99 368.636-168.143 367.966-372.883s-166.812-370.416-371.658-370.416c-138.718 0-259.686 76-323.535 188.637-3.756 6.511-10.68 10.823-18.612 10.823-2.999 0-5.855-0.617-8.446-1.73l0.139 0.053-90.13-37.812c-7.787-3.337-13.143-10.936-13.143-19.786 0-3.732 0.953-7.242 2.628-10.299l-0.056 0.112c86.433-160.576 256.061-269.72 451.156-269.72 282.791 0 512.033 229.259 512 512.055-0.028 283.063-228.937 511.945-512 511.945zM763.615 385.116l-21.353-58.422c-4.155-11.143-14.705-18.935-27.076-18.935-3.551 0-6.951 0.642-10.092 1.816l0.199-0.065-196.070 71.759c-11.134 4.159-18.919 14.704-18.92 27.068v0 255.202c0 15.92 12.906 28.826 28.826 28.826v0h62.208c15.92 0 28.826-12.906 28.826-28.826v0-171.446c0.001-12.364 7.785-22.909 18.721-27.003l0.199-0.065 117.376-42.939c11.13-4.162 18.911-14.706 18.911-27.067 0-3.554-0.643-6.958-1.819-10.101l0.065 0.199z" />
<glyph unicode="&#xe916;" glyph-name="ng-remove-icon" d="M512.003 960c-282.776 0-512.003-229.227-512.003-512.003s229.227-511.997 512.003-511.997 511.997 229.227 511.997 511.997-229.232 512.003-511.997 512.003zM789.597 281.499c5.716-5.716 9.251-13.612 9.251-22.334s-3.535-16.618-9.251-22.334l-70.375-70.369c-5.715-5.716-13.61-9.251-22.331-9.251s-16.616 3.535-22.331 9.251l-165.221 165.216-165.221-165.216c-5.715-5.716-13.61-9.251-22.331-9.251s-16.616 3.535-22.331 9.251l-70.375 70.37c-5.716 5.716-9.251 13.612-9.251 22.334s3.535 16.618 9.251 22.334l165.221 165.221-165.221 165.216c-5.716 5.716-9.251 13.612-9.251 22.334s3.535 16.618 9.251 22.334l70.375 70.375c5.716 5.713 13.611 9.247 22.331 9.247s16.615-3.533 22.331-9.247l165.221-165.247 165.221 165.221c5.716 5.713 13.611 9.247 22.331 9.247s16.615-3.533 22.331-9.247l70.375-70.375c5.716-5.716 9.251-13.612 9.251-22.334s-3.535-16.618-9.251-22.334l-165.242-165.19z" />
<glyph unicode="&#xe917;" glyph-name="ng-search-icon" d="M1004.922 44.988l-177.958 177.958c-6.69 6.708-14.868 11.929-23.997 15.127l-0.446 0.136c58.259 74.638 93.414 169.783 93.414 273.139 0 0.241 0 0.482-0.001 0.722v-0.038c0 247.407-200.561 447.967-447.967 447.967s-447.967-200.561-447.967-447.967 200.561-447.967 447.967-447.967c0.207 0 0.452-0.001 0.697-0.001 103.175 0 198.167 35.033 273.73 93.852l-1.001-0.75c3.329-9.603 8.559-17.806 15.283-24.511l177.955-177.955c11.553-11.555 27.515-18.701 45.145-18.701s33.592 7.147 45.145 18.701v0c11.553 11.553 18.699 27.513 18.699 45.143s-7.146 33.59-18.699 45.143v0zM447.967 190.14c-177.776 0-321.893 144.117-321.893 321.893s144.117 321.893 321.893 321.893 321.893-144.117 321.893-321.893-144.117-321.893-321.893-321.893z" />
<glyph unicode="&#xe918;" glyph-name="ng-stock-add-icon" horiz-adv-x="1019" d="M471.998 182.678q0 14.157 1.277 27.985l-60.264-16.925c-17.664 24.492-46.004 40.333-78.060 40.651h-0.050l-175.812 626.014c-4.57 15.9-18.984 27.337-36.069 27.337-3.608 0-7.097-0.51-10.398-1.462l0.264 0.065-13.62-3.821v0.037l-77.642-21.821c-12.91-3.378-22.282-14.938-22.282-28.687 0-16.352 13.256-29.608 29.608-29.608 3.095 0 6.079 0.475 8.883 1.356l-0.21-0.057 70.153 19.693 170.356-606.593c-25.251-17.821-41.541-46.876-41.541-79.737 0-53.736 43.561-97.297 97.297-97.297s97.296 43.56 97.297 97.295v0 0.043l42.648 11.975c-1.169 10.049-1.836 21.692-1.836 33.491 0 0.023 0 0.046 0 0.069v-0.004zM333.889 100.369c-20.282 0-36.724 16.442-36.724 36.724s16.442 36.724 36.724 36.724c20.282 0 36.724-16.442 36.724-36.724v0c0-20.282-16.442-36.724-36.724-36.724v0zM706.354 576.587c-3.288 11.454-13.67 19.693-25.976 19.693-2.593 0-5.1-0.366-7.473-1.048l0.19 0.047-331.185-92.821c-11.456-3.287-19.697-13.67-19.697-25.977 0-2.59 0.365-5.095 1.047-7.467l-0.047 0.19 58.833-209.901c3.286-11.453 13.667-19.693 25.972-19.693 2.592 0 5.099 0.366 7.472 1.048l-0.19-0.047 66.449 18.628c30.449 117.005 129.050 206.505 250.883 223.595zM607.503 458.208c-2.452-4.317-6.445-7.518-11.215-8.882l-0.133-0.032-111.901-31.364c-1.489-0.422-3.198-0.665-4.965-0.665-10.414 0-18.857 8.443-18.857 18.857 0 8.558 5.701 15.784 13.512 18.089l0.133 0.034 111.907 31.364c1.528 0.446 3.282 0.702 5.097 0.702 10.411 0 18.852-8.44 18.852-18.852 0-3.399-0.9-6.588-2.474-9.342l0.049 0.092zM596.332 869.175l-331.191-92.821c-11.454-3.288-19.693-13.67-19.693-25.976 0-2.593 0.366-5.1 1.048-7.473l-0.047 0.19 58.827-209.896c3.294-11.446 13.672-19.677 25.972-19.677 2.592 0 5.099 0.366 7.472 1.048l-0.19-0.047 331.191 92.826c11.453 3.286 19.693 13.667 19.693 25.972 0 2.592-0.366 5.099-1.048 7.472l0.047-0.19-58.827 209.88c-3.286 11.453-13.667 19.693-25.972 19.693-2.592 0-5.099-0.366-7.472-1.048l0.19 0.047zM530.74 732.104c-2.453-4.316-6.446-7.516-11.214-8.882l-0.133-0.033-111.907-31.364c-1.489-0.422-3.198-0.665-4.965-0.665-10.414 0-18.857 8.443-18.857 18.857 0 8.558 5.701 15.784 13.512 18.089l0.133 0.034 111.901 31.364c1.526 0.445 3.279 0.701 5.092 0.701 10.414 0 18.857-8.443 18.857-18.857 0-3.396-0.898-6.583-2.469-9.336l0.049 0.093zM216.369 851.833l382.403 107.201c14.253 3.996 29.047-4.32 33.043-18.573l6.443-22.984c3.996-14.253-4.32-29.047-18.573-33.043l-382.403-107.201c-14.253-3.996-29.047 4.32-33.043 18.573l-6.443 22.984c-3.996 14.253 4.32 29.047 18.573 33.043zM775.347 423.512c-134.654 0-243.761-109.139-243.761-243.761s109.107-243.761 243.761-243.761 243.761 109.107 243.761 243.761-109.139 243.761-243.761 243.761zM882.001 159.813h-84.092v-84.114c-0.196-12.448-10.333-22.463-22.809-22.463s-22.613 10.015-22.808 22.445v84.142h-84.146c-0.104-0.002-0.226-0.003-0.348-0.003-12.595 0-22.806 10.211-22.806 22.806s10.211 22.806 22.806 22.806c0.122 0 0.245-0.001 0.367-0.003h84.101v84.124c0.196 12.448 10.333 22.463 22.809 22.463s22.613-10.015 22.808-22.445v-84.142h84.092c0.104 0.002 0.226 0.003 0.348 0.003 12.595 0 22.806-10.211 22.806-22.806s-10.211-22.806-22.806-22.806c-0.122 0-0.245 0.001-0.367 0.003h0.018z" />
<glyph unicode="&#xe919;" glyph-name="ng-stock-icon" horiz-adv-x="1020" d="M1019.138 230.114c-4.034 14.021-16.746 24.106-31.814 24.106-3.177 0-6.25-0.448-9.158-1.285l0.233 0.057-518.786-145.693c-19.657 27.256-51.195 44.883-86.867 45.235h-0.055l-195.651 696.636c-5.087 17.693-21.127 30.419-40.139 30.419-4.015 0-7.897-0.567-11.571-1.627l0.294 0.073-15.159-4.256v0.043l-86.419-24.245c-13.981-4.019-24.037-16.694-24.037-31.717 0-3.174 0.449-6.242 1.286-9.146l-0.057 0.233c4.011-13.991 16.689-24.057 31.719-24.057 3.171 0 6.238 0.448 9.139 1.284l-0.233-0.057 78.067 21.924 189.572-675.028c-28.098-19.803-46.227-52.115-46.227-88.662 0-0.025 0-0.051 0-0.076v0.004c0-59.8 48.479-108.278 108.278-108.278s108.278 48.479 108.278 108.278v0.048l516.428 145.034c14.023 4.035 24.109 16.749 24.109 31.819 0 3.181-0.449 6.258-1.288 9.169l0.058-0.233zM371.555 3.374c-0.002 0-0.003 0-0.005 0-22.579 0-40.883 18.304-40.883 40.883s18.304 40.883 40.883 40.883c22.579 0 40.883-18.304 40.883-40.883v0c-0.012-22.568-18.308-40.858-40.877-40.862v0zM749.022 554.139l-368.548-103.293c-12.744-3.659-21.912-15.21-21.912-28.903 0-2.878 0.405-5.661 1.161-8.295l-0.052 0.212 65.465-233.575c3.659-12.744 15.21-21.912 28.903-21.912 2.878 0 5.661 0.405 8.295 1.161l-0.212-0.052 368.548 103.293c12.744 3.659 21.912 15.21 21.912 28.903 0 2.878-0.405 5.661-1.161 8.295l0.052-0.212-65.444 233.559c-3.652 12.755-15.208 21.933-28.908 21.933-2.883 0-5.672-0.407-8.311-1.165l0.212 0.052zM676.031 401.607c-2.727-4.804-7.17-8.367-12.476-9.886l-0.147-0.036-124.525-34.901c-1.869-0.604-4.018-0.952-6.25-0.952-11.587 0-20.98 9.393-20.98 20.98 0 9.784 6.698 18.004 15.758 20.325l0.145 0.032 124.525 34.901c1.7 0.496 3.653 0.782 5.673 0.782 11.584 0 20.975-9.391 20.975-20.975 0-3.782-1.001-7.33-2.752-10.394l0.054 0.103zM663.605 858.931l-368.553-103.293c-12.744-3.659-21.912-15.21-21.912-28.903 0-2.878 0.405-5.661 1.161-8.295l-0.052 0.212 65.465-233.575c3.659-12.744 15.21-21.912 28.903-21.912 2.878 0 5.661 0.405 8.295 1.161l-0.212-0.052 368.548 103.293c12.747 3.657 21.917 15.21 21.917 28.904 0 2.877-0.405 5.66-1.16 8.294l0.052-0.212-65.465 233.575c-3.659 12.744-15.21 21.912-28.903 21.912-2.878 0-5.661-0.405-8.295-1.161l0.212 0.052zM590.609 706.399c-2.728-4.805-7.173-8.368-12.481-9.886l-0.147-0.036-124.498-34.901c-1.697-0.494-3.647-0.779-5.663-0.779-11.588 0-20.982 9.394-20.982 20.982 0 9.572 6.409 17.646 15.17 20.167l0.148 0.036 124.525 34.901c1.699 0.495 3.65 0.78 5.668 0.78 11.587 0 20.98-9.393 20.98-20.98 0-3.779-0.999-7.325-2.748-10.387l0.054 0.103zM240.777 839.631l425.541 119.294c15.86 4.446 32.322-4.807 36.768-20.667l7.171-25.58c4.446-15.86-4.807-32.322-20.667-36.768l-425.541-119.294c-15.86-4.446-32.322 4.807-36.768 20.667l-7.171 25.58c-4.446 15.86 4.807 32.322 20.667 36.768z" />
</font>
</defs>
</svg>
